<svg width="640" height="160" viewBox="0 0 640 160" fill="none" xmlns="http://www.w3.org/2000/svg">
<g clip-path="url(#clip0)">
<path d="M102.017 58.705H120.287C127.287 58.705 132.887 60.21 137.087 63.22C141.287 66.23 143.387 70.85 143.387 77.08C143.387 80.72 142.442 83.905 140.552 86.635C138.662 89.295 136.177 91.115 133.097 92.095C137.087 92.795 140.552 94.44 143.492 97.03C146.432 99.62 147.902 103.54 147.902 108.79C147.902 115.93 145.487 121.25 140.657 124.75C135.897 128.25 129.702 130 122.072 130H102.017C99.3574 130 98.0274 128.705 98.0274 126.115V62.8C98.0274 60.07 99.3574 58.705 102.017 58.705ZM107.057 66.58V89.365H121.022C125.642 89.365 129.037 88.42 131.207 86.53C133.447 84.64 134.567 81.735 134.567 77.815C134.567 70.325 129.807 66.58 120.287 66.58H107.057ZM107.057 96.505V122.125H122.072C133.342 122.125 138.977 117.68 138.977 108.79C138.977 100.6 133.622 96.505 122.912 96.505H107.057ZM164.502 84.325C169.472 79.635 175.562 77.29 182.772 77.29C189.982 77.29 196.072 79.635 201.042 84.325C206.012 89.015 208.497 95.63 208.497 104.17C208.497 112.71 206.012 119.29 201.042 123.91C196.072 128.53 189.982 130.84 182.772 130.84C175.562 130.84 169.472 128.53 164.502 123.91C159.532 119.29 157.047 112.71 157.047 104.17C157.047 95.63 159.532 89.015 164.502 84.325ZM194.847 89.68C191.767 86.25 187.742 84.535 182.772 84.535C177.802 84.535 173.742 86.25 170.592 89.68C167.512 93.04 165.972 97.87 165.972 104.17C165.972 110.4 167.512 115.23 170.592 118.66C173.742 122.02 177.802 123.7 182.772 123.7C187.742 123.7 191.767 122.02 194.847 118.66C197.997 115.23 199.572 110.4 199.572 104.17C199.572 97.87 197.997 93.04 194.847 89.68ZM229.1 64.27H229.835C232.495 64.27 233.825 65.565 233.825 68.155V78.55H248.315C251.045 78.55 252.41 79.74 252.41 82.12C252.41 84.5 251.045 85.69 248.315 85.69H233.825V112.15C233.825 116.56 234.665 119.675 236.345 121.495C238.095 123.245 240.615 124.12 243.905 124.12C247.265 124.12 249.75 123.315 251.36 121.705C253.11 122.265 253.985 123.385 253.985 125.065C253.985 126.745 252.83 128.145 250.52 129.265C248.21 130.315 245.445 130.84 242.225 130.84C230.815 130.84 225.11 124.61 225.11 112.15V85.69H219.965C218.425 85.69 217.305 85.445 216.605 84.955C215.905 84.465 215.555 83.52 215.555 82.12C215.555 79.74 217.025 78.55 219.965 78.55H225.11V68.155C225.11 65.565 226.44 64.27 229.1 64.27ZM271.244 64.27H271.979C274.639 64.27 275.969 65.565 275.969 68.155V78.55H290.459C293.189 78.55 294.554 79.74 294.554 82.12C294.554 84.5 293.189 85.69 290.459 85.69H275.969V112.15C275.969 116.56 276.809 119.675 278.489 121.495C280.239 123.245 282.759 124.12 286.049 124.12C289.409 124.12 291.894 123.315 293.504 121.705C295.254 122.265 296.129 123.385 296.129 125.065C296.129 126.745 294.974 128.145 292.664 129.265C290.354 130.315 287.589 130.84 284.369 130.84C272.959 130.84 267.254 124.61 267.254 112.15V85.69H262.109C260.569 85.69 259.449 85.445 258.749 84.955C258.049 84.465 257.699 83.52 257.699 82.12C257.699 79.74 259.169 78.55 262.109 78.55H267.254V68.155C267.254 65.565 268.584 64.27 271.244 64.27ZM309.502 56.395H310.237C312.897 56.395 314.227 57.69 314.227 60.28V126.01C314.227 128.67 312.897 130 310.237 130H309.502C308.032 130 306.982 129.685 306.352 129.055C305.792 128.425 305.512 127.41 305.512 126.01V60.28C305.512 58.88 305.792 57.9 306.352 57.34C306.982 56.71 308.032 56.395 309.502 56.395ZM326.954 104.275C326.954 95.525 329.404 88.84 334.304 84.22C339.204 79.6 344.839 77.29 351.209 77.29C357.579 77.29 362.619 78.935 366.329 82.225C370.039 85.445 371.894 89.47 371.894 94.3C371.894 99.13 369.969 102.91 366.119 105.64C362.339 108.3 357.439 109.63 351.419 109.63C345.399 109.63 339.974 108.685 335.144 106.795C335.144 111.905 336.894 116.035 340.394 119.185C343.894 122.265 348.164 123.805 353.204 123.805C361.044 123.805 365.944 121.39 367.904 116.56C369.094 116.56 370.109 116.91 370.949 117.61C371.789 118.24 372.209 119.185 372.209 120.445C372.209 122.895 370.389 125.24 366.749 127.48C363.179 129.72 358.629 130.84 353.099 130.84C345.679 130.84 339.449 128.6 334.409 124.12C329.439 119.64 326.954 113.025 326.954 104.275ZM363.914 93.985C363.914 91.255 362.724 88.945 360.344 87.055C358.034 85.165 354.814 84.22 350.684 84.22C346.624 84.22 343.054 85.865 339.974 89.155C336.894 92.445 335.319 96.155 335.249 100.285C340.289 101.965 345.294 102.805 350.264 102.805C359.364 102.805 363.914 99.865 363.914 93.985ZM382.988 77.29C382.988 71.97 385.368 67.42 390.128 63.64C394.888 59.86 400.733 57.97 407.663 57.97C414.663 57.97 420.018 58.845 423.728 60.595C427.438 62.275 429.293 64.375 429.293 66.895C429.293 69.415 427.753 70.99 424.673 71.62C422.013 67.63 416.658 65.635 408.608 65.635C403.848 65.635 399.963 66.755 396.953 68.995C393.943 71.165 392.438 73.825 392.438 76.975C392.438 80.125 393.663 82.54 396.113 84.22C398.563 85.9 402.133 87.37 406.823 88.63C411.583 89.82 415.223 90.905 417.743 91.885C420.333 92.865 422.923 94.16 425.513 95.77C430.553 98.85 433.073 103.505 433.073 109.735C433.073 115.895 430.553 120.97 425.513 124.96C420.473 128.88 414.173 130.84 406.613 130.84C399.053 130.84 393.138 129.86 388.868 127.9C384.668 125.87 382.568 123.49 382.568 120.76C382.568 117.96 384.353 116.105 387.923 115.195C390.513 120.445 396.358 123.07 405.458 123.07C411.268 123.07 415.783 121.915 419.003 119.605C422.293 117.225 423.938 114.215 423.938 110.575C423.938 106.865 422.293 104.03 419.003 102.07C415.783 100.11 410.708 98.29 403.778 96.61C396.918 94.86 391.738 92.515 388.238 89.575C384.738 86.635 382.988 82.54 382.988 77.29ZM464.966 77.395C479.806 77.395 487.226 84.29 487.226 98.08V118.87C487.226 122.72 488.696 125.17 491.636 126.22C490.586 128.88 488.626 130.21 485.756 130.21C483.656 130.21 481.976 129.475 480.716 128.005C479.526 126.465 478.931 124.47 478.931 122.02C474.521 127.9 468.816 130.84 461.816 130.84C456.146 130.84 451.666 129.405 448.376 126.535C445.156 123.595 443.546 119.675 443.546 114.775C443.546 109.805 445.436 105.78 449.216 102.7C453.066 99.62 458.246 98.08 464.756 98.08C468.676 98.08 471.966 98.5 474.626 99.34C476.796 100.11 478.091 100.6 478.511 100.81V96.19C478.511 91.92 477.426 88.91 475.256 87.16C473.086 85.34 469.796 84.43 465.386 84.43C459.156 84.43 454.326 86.81 450.896 91.57C447.956 91.15 446.486 89.785 446.486 87.475C446.486 84.815 448.306 82.47 451.946 80.44C455.586 78.41 459.926 77.395 464.966 77.395ZM478.511 107.53C474.101 105.57 469.761 104.59 465.491 104.59C461.221 104.59 457.931 105.5 455.621 107.32C453.311 109.14 452.156 111.52 452.156 114.46C452.156 117.33 453.136 119.64 455.096 121.39C457.126 123.07 460.066 123.91 463.916 123.91C467.836 123.91 471.231 122.51 474.101 119.71C477.041 116.91 478.511 113.515 478.511 109.525V107.53ZM521.37 114.985L516.645 114.775C514.965 114.775 513.53 115.23 512.34 116.14C511.15 116.98 510.555 117.925 510.555 118.975C510.555 121.635 512.795 122.965 517.275 122.965H525.045C539.955 122.965 547.41 127.55 547.41 136.72C547.41 141.55 545.065 145.47 540.375 148.48C535.755 151.49 529.805 153.135 522.525 153.415H520.005C514.055 153.415 508.98 152.225 504.78 149.845C500.58 147.465 498.48 144.665 498.48 141.445C498.48 139.905 498.83 138.68 499.53 137.77C500.3 136.86 501.28 136.335 502.47 136.195C503.8 138.925 506.145 141.2 509.505 143.02C512.865 144.84 516.82 145.75 521.37 145.75H522.105C527.355 145.75 531.45 144.945 534.39 143.335C537.4 141.725 538.905 139.695 538.905 137.245C538.905 134.865 537.575 133.115 534.915 131.995C532.325 130.945 527.81 130.42 521.37 130.42C515 130.42 510.205 129.79 506.985 128.53C503.765 127.27 502.155 124.82 502.155 121.18C502.155 117.54 504.71 114.67 509.82 112.57C503.73 109.14 500.685 103.68 500.685 96.19C500.685 90.24 502.715 85.62 506.775 82.33C510.835 79.04 515.84 77.395 521.79 77.395C524.8 77.395 527.565 78.025 530.085 79.285C532.675 80.545 534.635 81.91 535.965 83.38C538.625 81.63 539.955 78.445 539.955 73.825C541.845 73.825 543.525 74.42 544.995 75.61C546.465 76.73 547.2 78.165 547.2 79.915C547.2 83.415 544.61 85.935 539.43 87.475C540.97 89.575 541.74 92.655 541.74 96.715C541.74 102.665 539.78 107.215 535.86 110.365C532.01 113.445 527.18 114.985 521.37 114.985ZM530.19 87.16C527.88 85.13 524.94 84.115 521.37 84.115C517.8 84.115 514.825 85.13 512.445 87.16C510.065 89.12 508.875 92.165 508.875 96.295C508.875 100.425 510.065 103.505 512.445 105.535C514.825 107.495 517.8 108.475 521.37 108.475C524.94 108.475 527.88 107.495 530.19 105.535C532.57 103.505 533.76 100.425 533.76 96.295C533.76 92.165 532.57 89.12 530.19 87.16ZM576.529 77.395C591.369 77.395 598.789 84.29 598.789 98.08V118.87C598.789 122.72 600.259 125.17 603.199 126.22C602.149 128.88 600.189 130.21 597.319 130.21C595.219 130.21 593.539 129.475 592.279 128.005C591.089 126.465 590.494 124.47 590.494 122.02C586.084 127.9 580.379 130.84 573.379 130.84C567.709 130.84 563.229 129.405 559.939 126.535C556.719 123.595 555.109 119.675 555.109 114.775C555.109 109.805 556.999 105.78 560.779 102.7C564.629 99.62 569.809 98.08 576.319 98.08C580.239 98.08 583.529 98.5 586.189 99.34C588.359 100.11 589.654 100.6 590.074 100.81V96.19C590.074 91.92 588.989 88.91 586.819 87.16C584.649 85.34 581.359 84.43 576.949 84.43C570.719 84.43 565.889 86.81 562.459 91.57C559.519 91.15 558.049 89.785 558.049 87.475C558.049 84.815 559.869 82.47 563.509 80.44C567.149 78.41 571.489 77.395 576.529 77.395ZM590.074 107.53C585.664 105.57 581.324 104.59 577.054 104.59C572.784 104.59 569.494 105.5 567.184 107.32C564.874 109.14 563.719 111.52 563.719 114.46C563.719 117.33 564.699 119.64 566.659 121.39C568.689 123.07 571.629 123.91 575.479 123.91C579.399 123.91 582.794 122.51 585.664 119.71C588.604 116.91 590.074 113.515 590.074 109.525V107.53Z" fill="black"/>
<g filter="url(#filter0_i)">
<rect width="36.3012" height="28.8023" rx="7" transform="matrix(0.866736 0.498767 -0.535405 0.844595 131.722 -3.2587)" fill="#6A5858"/>
</g>
<rect width="92.327" height="110.476" rx="22" transform="matrix(0.882507 0.470298 -0.506264 0.862379 90.057 13.3365)" fill="#EAC5FB" fill-opacity="0.31"/>
<rect width="110.089" height="137.963" rx="22" transform="matrix(0.882507 0.470298 -0.506264 0.862379 89.8455 -5)" fill="#ECDFF2" fill-opacity="0.31"/>
<path d="M45.7754 99.8174C52.0657 89.1023 110.468 80.9127 122.099 75.8914C126.663 73.9211 131.707 71.4593 137.253 68.5028C148.297 62.6149 161.305 74.2792 155.084 84.8774L128.332 130.446C122.181 140.924 108.502 144.786 97.7793 139.072L49.6107 113.402C44.6423 110.755 42.9251 104.672 45.7754 99.8174V99.8174Z" fill="#EAC5FB" fill-opacity="0.31"/>
<path d="M69.1741 115.996C73.4763 108.668 117.512 98.8632 125.214 94.9119C127.827 93.5718 130.648 92.0107 133.685 90.2274C140.923 85.9776 149.889 93.7255 145.714 100.838L125.538 135.206C120.93 143.055 110.683 145.948 102.65 141.668L71.7768 125.215C68.4052 123.418 67.24 119.291 69.1741 115.996V115.996Z" fill="#ECC6FE" fill-opacity="0.31"/>
<rect width="6.204" height="19.3957" transform="matrix(0.283327 0.959024 -0.965869 0.259032 103.679 25.6984)" fill="white"/>
<rect width="6.204" height="64.2125" transform="matrix(0.283327 0.959024 -0.965869 0.259032 130.747 42.9341)" fill="white"/>
<rect width="6.204" height="41.4288" transform="matrix(0.283327 0.959024 -0.965869 0.259032 118.224 33.1295)" fill="white"/>
</g>
<defs>
<filter id="filter0_i" x="118.983" y="-0.722351" width="41.5192" height="41.3594" filterUnits="userSpaceOnUse" color-interpolation-filters="sRGB">
<feFlood flood-opacity="0" result="BackgroundImageFix"/>
<feBlend mode="normal" in="SourceGraphic" in2="BackgroundImageFix" result="shape"/>
<feColorMatrix in="SourceAlpha" type="matrix" values="0 0 0 0 0 0 0 0 0 0 0 0 0 0 0 0 0 0 127 0" result="hardAlpha"/>
<feOffset dy="4"/>
<feGaussianBlur stdDeviation="2"/>
<feComposite in2="hardAlpha" operator="arithmetic" k2="-1" k3="1"/>
<feColorMatrix type="matrix" values="0 0 0 0 0 0 0 0 0 0 0 0 0 0 0 0 0 0 0.25 0"/>
<feBlend mode="normal" in2="shape" result="effect1_innerShadow"/>
</filter>
<clipPath id="clip0">
<rect width="640" height="160" fill="white"/>
</clipPath>
</defs>
</svg>
