<svg width="325" height="115" viewBox="0 0 325 115" fill="none" xmlns="http://www.w3.org/2000/svg">
<g filter="url(#filter0_i)">
<rect width="19.4414" height="15.8782" rx="7" transform="matrix(0.852798 0.52224 -0.511771 0.859122 80.8713 8.97646)" fill="#6A5858"/>
</g>
<rect width="49.3589" height="61.015" rx="22" transform="matrix(0.869856 0.493306 -0.483029 0.875604 58.9163 18.2824)" fill="#EAC5FB" fill-opacity="0.31"/>
<rect width="58.8548" height="76.1959" rx="22" transform="matrix(0.869856 0.493306 -0.483029 0.875604 58.8048 8)" fill="#ECDFF2" fill-opacity="0.31"/>
<path d="M35.5033 66.9208C38.731 61.0699 70.447 55.8871 76.458 53.0551C78.7111 51.9936 81.179 50.6989 83.8704 49.1697C89.5473 45.9443 96.4961 52.3921 93.3257 58.1392L79.442 83.3066C76.0036 89.5396 68.1966 91.7457 62.0046 88.2341L37.618 74.4042C34.9918 72.9148 34.045 69.5644 35.5033 66.9208V66.9208Z" fill="#EAC5FB" fill-opacity="0.31"/>
<path d="M47.8581 75.9482C50.0644 71.9487 73.9281 65.9828 77.8993 63.7752C79.1624 63.073 80.5154 62.27 81.9609 61.3657C85.6782 59.0401 90.464 63.3268 88.3353 67.1854L77.5073 86.8138C75.1374 91.1098 69.7565 92.6303 65.4887 90.21L49.2927 81.025C47.511 80.0146 46.8687 77.7417 47.8581 75.9482V75.9482Z" fill="#ECC6FE" fill-opacity="0.31"/>
<rect width="3.46261" height="10.2658" transform="matrix(0.267499 0.963558 -0.961605 0.274438 66.0942 25.2146)" fill="white"/>
<rect width="3.46261" height="33.9866" transform="matrix(0.267499 0.963558 -0.961605 0.274438 80.358 34.8797)" fill="white"/>
<rect width="3.46261" height="21.9275" transform="matrix(0.267499 0.963558 -0.961605 0.274438 73.7587 29.3816)" fill="white"/>
<path d="M59.95 40.05H68.65C71.9833 40.05 74.65 40.7667 76.65 42.2C78.65 43.6333 79.65 45.8333 79.65 48.8C79.65 50.5333 79.2 52.05 78.3 53.35C77.4 54.6167 76.2167 55.4833 74.75 55.95C76.65 56.2833 78.3 57.0667 79.7 58.3C81.1 59.5333 81.8 61.4 81.8 63.9C81.8 67.3 80.65 69.8333 78.35 71.5C76.0833 73.1667 73.1333 74 69.5 74H59.95C58.6833 74 58.05 73.3833 58.05 72.15V42C58.05 40.7 58.6833 40.05 59.95 40.05ZM62.35 43.8V54.65H69C71.2 54.65 72.8167 54.2 73.85 53.3C74.9167 52.4 75.45 51.0167 75.45 49.15C75.45 45.5833 73.1833 43.8 68.65 43.8H62.35ZM62.35 58.05V70.25H69.5C74.8667 70.25 77.55 68.1333 77.55 63.9C77.55 60 75 58.05 69.9 58.05H62.35ZM89.7047 52.25C92.0714 50.0167 94.9714 48.9 98.4047 48.9C101.838 48.9 104.738 50.0167 107.105 52.25C109.471 54.4833 110.655 57.6333 110.655 61.7C110.655 65.7667 109.471 68.9 107.105 71.1C104.738 73.3 101.838 74.4 98.4047 74.4C94.9714 74.4 92.0714 73.3 89.7047 71.1C87.338 68.9 86.1547 65.7667 86.1547 61.7C86.1547 57.6333 87.338 54.4833 89.7047 52.25ZM104.155 54.8C102.688 53.1667 100.771 52.35 98.4047 52.35C96.038 52.35 94.1047 53.1667 92.6047 54.8C91.138 56.4 90.4047 58.7 90.4047 61.7C90.4047 64.6667 91.138 66.9667 92.6047 68.6C94.1047 70.2 96.038 71 98.4047 71C100.771 71 102.688 70.2 104.155 68.6C105.655 66.9667 106.405 64.6667 106.405 61.7C106.405 58.7 105.655 56.4 104.155 54.8ZM120.466 42.7H120.816C122.082 42.7 122.716 43.3167 122.716 44.55V49.5H129.616C130.916 49.5 131.566 50.0667 131.566 51.2C131.566 52.3333 130.916 52.9 129.616 52.9H122.716V65.5C122.716 67.6 123.116 69.0833 123.916 69.95C124.749 70.7833 125.949 71.2 127.516 71.2C129.116 71.2 130.299 70.8167 131.066 70.05C131.899 70.3167 132.316 70.85 132.316 71.65C132.316 72.45 131.766 73.1167 130.666 73.65C129.566 74.15 128.249 74.4 126.716 74.4C121.282 74.4 118.566 71.4333 118.566 65.5V52.9H116.116C115.382 52.9 114.849 52.7833 114.516 52.55C114.182 52.3167 114.016 51.8667 114.016 51.2C114.016 50.0667 114.716 49.5 116.116 49.5H118.566V44.55C118.566 43.3167 119.199 42.7 120.466 42.7ZM140.534 42.7H140.884C142.151 42.7 142.784 43.3167 142.784 44.55V49.5H149.684C150.984 49.5 151.634 50.0667 151.634 51.2C151.634 52.3333 150.984 52.9 149.684 52.9H142.784V65.5C142.784 67.6 143.184 69.0833 143.984 69.95C144.817 70.7833 146.017 71.2 147.584 71.2C149.184 71.2 150.367 70.8167 151.134 70.05C151.967 70.3167 152.384 70.85 152.384 71.65C152.384 72.45 151.834 73.1167 150.734 73.65C149.634 74.15 148.317 74.4 146.784 74.4C141.351 74.4 138.634 71.4333 138.634 65.5V52.9H136.184C135.451 52.9 134.917 52.7833 134.584 52.55C134.251 52.3167 134.084 51.8667 134.084 51.2C134.084 50.0667 134.784 49.5 136.184 49.5H138.634V44.55C138.634 43.3167 139.267 42.7 140.534 42.7ZM158.752 38.95H159.102C160.369 38.95 161.002 39.5667 161.002 40.8V72.1C161.002 73.3667 160.369 74 159.102 74H158.752C158.052 74 157.552 73.85 157.252 73.55C156.986 73.25 156.852 72.7667 156.852 72.1V40.8C156.852 40.1333 156.986 39.6667 157.252 39.4C157.552 39.1 158.052 38.95 158.752 38.95ZM167.063 61.75C167.063 57.5833 168.23 54.4 170.563 52.2C172.896 50 175.58 48.9 178.613 48.9C181.646 48.9 184.046 49.6833 185.813 51.25C187.58 52.7833 188.463 54.7 188.463 57C188.463 59.3 187.546 61.1 185.713 62.4C183.913 63.6667 181.58 64.3 178.713 64.3C175.846 64.3 173.263 63.85 170.963 62.95C170.963 65.3833 171.796 67.35 173.463 68.85C175.13 70.3167 177.163 71.05 179.563 71.05C183.296 71.05 185.63 69.9 186.563 67.6C187.13 67.6 187.613 67.7667 188.013 68.1C188.413 68.4 188.613 68.85 188.613 69.45C188.613 70.6167 187.746 71.7333 186.013 72.8C184.313 73.8667 182.146 74.4 179.513 74.4C175.98 74.4 173.013 73.3333 170.613 71.2C168.246 69.0667 167.063 65.9167 167.063 61.75ZM184.663 56.85C184.663 55.55 184.096 54.45 182.963 53.55C181.863 52.65 180.33 52.2 178.363 52.2C176.43 52.2 174.73 52.9833 173.263 54.55C171.796 56.1167 171.046 57.8833 171.013 59.85C173.413 60.65 175.796 61.05 178.163 61.05C182.496 61.05 184.663 59.65 184.663 56.85ZM193.745 48.9C193.745 46.3667 194.879 44.2 197.145 42.4C199.412 40.6 202.195 39.7 205.495 39.7C208.829 39.7 211.379 40.1167 213.145 40.95C214.912 41.75 215.795 42.75 215.795 43.95C215.795 45.15 215.062 45.9 213.595 46.2C212.329 44.3 209.779 43.35 205.945 43.35C203.679 43.35 201.829 43.8833 200.395 44.95C198.962 45.9833 198.245 47.25 198.245 48.75C198.245 50.25 198.829 51.4 199.995 52.2C201.162 53 202.862 53.7 205.095 54.3C207.362 54.8667 209.095 55.3833 210.295 55.85C211.529 56.3167 212.762 56.9333 213.995 57.7C216.395 59.1667 217.595 61.3833 217.595 64.35C217.595 67.2833 216.395 69.7 213.995 71.6C211.595 73.4667 208.595 74.4 204.995 74.4C201.395 74.4 198.579 73.9333 196.545 73C194.545 72.0333 193.545 70.9 193.545 69.6C193.545 68.2667 194.395 67.3833 196.095 66.95C197.329 69.45 200.112 70.7 204.445 70.7C207.212 70.7 209.362 70.15 210.895 69.05C212.462 67.9167 213.245 66.4833 213.245 64.75C213.245 62.9833 212.462 61.6333 210.895 60.7C209.362 59.7667 206.945 58.9 203.645 58.1C200.379 57.2667 197.912 56.15 196.245 54.75C194.579 53.35 193.745 51.4 193.745 48.9ZM232.783 48.95C239.849 48.95 243.383 52.2333 243.383 58.8V68.7C243.383 70.5333 244.083 71.7 245.483 72.2C244.983 73.4667 244.049 74.1 242.683 74.1C241.683 74.1 240.883 73.75 240.283 73.05C239.716 72.3167 239.433 71.3667 239.433 70.2C237.333 73 234.616 74.4 231.283 74.4C228.583 74.4 226.449 73.7167 224.883 72.35C223.349 70.95 222.583 69.0833 222.583 66.75C222.583 64.3833 223.483 62.4667 225.283 61C227.116 59.5333 229.583 58.8 232.683 58.8C234.549 58.8 236.116 59 237.383 59.4C238.416 59.7667 239.033 60 239.233 60.1V57.9C239.233 55.8667 238.716 54.4333 237.683 53.6C236.649 52.7333 235.083 52.3 232.983 52.3C230.016 52.3 227.716 53.4333 226.083 55.7C224.683 55.5 223.983 54.85 223.983 53.75C223.983 52.4833 224.849 51.3667 226.583 50.4C228.316 49.4333 230.383 48.95 232.783 48.95ZM239.233 63.3C237.133 62.3667 235.066 61.9 233.033 61.9C230.999 61.9 229.433 62.3333 228.333 63.2C227.233 64.0667 226.683 65.2 226.683 66.6C226.683 67.9667 227.149 69.0667 228.083 69.9C229.049 70.7 230.449 71.1 232.283 71.1C234.149 71.1 235.766 70.4333 237.133 69.1C238.533 67.7667 239.233 66.15 239.233 64.25V63.3ZM259.642 66.85L257.392 66.75C256.592 66.75 255.908 66.9667 255.342 67.4C254.775 67.8 254.492 68.25 254.492 68.75C254.492 70.0167 255.558 70.65 257.692 70.65H261.392C268.492 70.65 272.042 72.8333 272.042 77.2C272.042 79.5 270.925 81.3667 268.692 82.8C266.492 84.2333 263.658 85.0167 260.192 85.15H258.992C256.158 85.15 253.742 84.5833 251.742 83.45C249.742 82.3167 248.742 80.9833 248.742 79.45C248.742 78.7167 248.908 78.1333 249.242 77.7C249.608 77.2667 250.075 77.0167 250.642 76.95C251.275 78.25 252.392 79.3333 253.992 80.2C255.592 81.0667 257.475 81.5 259.642 81.5H259.992C262.492 81.5 264.442 81.1167 265.842 80.35C267.275 79.5833 267.992 78.6167 267.992 77.45C267.992 76.3167 267.358 75.4833 266.092 74.95C264.858 74.45 262.708 74.2 259.642 74.2C256.608 74.2 254.325 73.9 252.792 73.3C251.258 72.7 250.492 71.5333 250.492 69.8C250.492 68.0667 251.708 66.7 254.142 65.7C251.242 64.0667 249.792 61.4667 249.792 57.9C249.792 55.0667 250.758 52.8667 252.692 51.3C254.625 49.7333 257.008 48.95 259.842 48.95C261.275 48.95 262.592 49.25 263.792 49.85C265.025 50.45 265.958 51.1 266.592 51.8C267.858 50.9667 268.492 49.45 268.492 47.25C269.392 47.25 270.192 47.5333 270.892 48.1C271.592 48.6333 271.942 49.3167 271.942 50.15C271.942 51.8167 270.708 53.0167 268.242 53.75C268.975 54.75 269.342 56.2167 269.342 58.15C269.342 60.9833 268.408 63.15 266.542 64.65C264.708 66.1167 262.408 66.85 259.642 66.85ZM263.842 53.6C262.742 52.6333 261.342 52.15 259.642 52.15C257.942 52.15 256.525 52.6333 255.392 53.6C254.258 54.5333 253.692 55.9833 253.692 57.95C253.692 59.9167 254.258 61.3833 255.392 62.35C256.525 63.2833 257.942 63.75 259.642 63.75C261.342 63.75 262.742 63.2833 263.842 62.35C264.975 61.3833 265.542 59.9167 265.542 57.95C265.542 55.9833 264.975 54.5333 263.842 53.6ZM285.908 48.95C292.974 48.95 296.508 52.2333 296.508 58.8V68.7C296.508 70.5333 297.208 71.7 298.608 72.2C298.108 73.4667 297.174 74.1 295.808 74.1C294.808 74.1 294.008 73.75 293.408 73.05C292.841 72.3167 292.558 71.3667 292.558 70.2C290.458 73 287.741 74.4 284.408 74.4C281.708 74.4 279.574 73.7167 278.008 72.35C276.474 70.95 275.708 69.0833 275.708 66.75C275.708 64.3833 276.608 62.4667 278.408 61C280.241 59.5333 282.708 58.8 285.808 58.8C287.674 58.8 289.241 59 290.508 59.4C291.541 59.7667 292.158 60 292.358 60.1V57.9C292.358 55.8667 291.841 54.4333 290.808 53.6C289.774 52.7333 288.208 52.3 286.108 52.3C283.141 52.3 280.841 53.4333 279.208 55.7C277.808 55.5 277.108 54.85 277.108 53.75C277.108 52.4833 277.974 51.3667 279.708 50.4C281.441 49.4333 283.508 48.95 285.908 48.95ZM292.358 63.3C290.258 62.3667 288.191 61.9 286.158 61.9C284.124 61.9 282.558 62.3333 281.458 63.2C280.358 64.0667 279.808 65.2 279.808 66.6C279.808 67.9667 280.274 69.0667 281.208 69.9C282.174 70.7 283.574 71.1 285.408 71.1C287.274 71.1 288.891 70.4333 290.258 69.1C291.658 67.7667 292.358 66.15 292.358 64.25V63.3Z" fill="#B78CBE"/>
<defs>
<filter id="filter0_i" x="75.3343" y="11.6072" width="19.5277" height="22.5329" filterUnits="userSpaceOnUse" color-interpolation-filters="sRGB">
<feFlood flood-opacity="0" result="BackgroundImageFix"/>
<feBlend mode="normal" in="SourceGraphic" in2="BackgroundImageFix" result="shape"/>
<feColorMatrix in="SourceAlpha" type="matrix" values="0 0 0 0 0 0 0 0 0 0 0 0 0 0 0 0 0 0 127 0" result="hardAlpha"/>
<feOffset dy="4"/>
<feGaussianBlur stdDeviation="2"/>
<feComposite in2="hardAlpha" operator="arithmetic" k2="-1" k3="1"/>
<feColorMatrix type="matrix" values="0 0 0 0 0 0 0 0 0 0 0 0 0 0 0 0 0 0 0.25 0"/>
<feBlend mode="normal" in2="shape" result="effect1_innerShadow"/>
</filter>
</defs>
</svg>
